<svg xmlns="http://www.w3.org/2000/svg" viewBox="0 0 512 512" role="img" aria-labelledby="title desc">
  <title id="title">CareNest monochrome icon</title>
  <desc id="desc">Monochrome CareNest shield, nest and calendar check mark for system surfaces.</desc>
  <path d="M256 64c86 0 158 52 186 126-8 124-75 214-186 260C145 404 78 314 70 190 98 116 170 64 256 64Z" fill="currentColor"/>
  <path d="M142 258c45-62 183-62 228 0-24 72-68 126-114 156-46-30-90-84-114-156Z" fill="none" stroke="#fff" stroke-width="24" stroke-linejoin="round"/>
  <path d="M174 258c45 26 119 26 164 0" fill="none" stroke="#fff" stroke-width="20" stroke-linecap="round"/>
  <rect x="194" y="136" width="124" height="100" rx="20" fill="#fff"/>
  <path d="M219 183l22 21 52-55" fill="none" stroke="currentColor" stroke-width="16" stroke-linecap="round" stroke-linejoin="round"/>
</svg>
